<svg width="1080" height="1080" viewBox="0 0 1080 1080" fill="none" xmlns="http://www.w3.org/2000/svg">
<g clip-path="url(#clip0_13_322)">
<rect width="1080" height="1080" fill="#1BD08F"/>
<path opacity="0.1" fill-rule="evenodd" clip-rule="evenodd" d="M897.328 254.973L998.393 313.222L1049.85 283.838L1080 266.519V273.331L1001.3 318.476V508.233L1080 553.435V560.132L998.393 513.313L962.962 533.634L833.03 608.163V797.978L934.095 855.708L998.393 892.655L1080 845.778V852.533L1001.3 897.677V1087.43L1080 1132.46V1139.33L998.683 1092.17L830.242 1188.75L661.801 1092.17L493.359 1188.75L322.13 1090.61V897.504L153.688 800.922V604.641L322.13 508.06V318.302L153.688 221.721V28.615L0 -59.5959H11.6167L156.825 23.5348L302.033 -59.5959H313.65L235.121 -14.5668L159.961 28.615V218.372L325.324 313.28L358.548 294.171L490.687 218.372V28.615L424.705 -9.25559L336.999 -59.5959H348.616L410.823 -23.919L493.533 23.5348L638.451 -59.5959H650.068L560.503 -8.2165L496.612 28.615V218.372L561.026 255.319L661.975 313.049L722.672 278.411L827.222 218.315V28.5573L772.333 -2.96308L673.591 -59.6536H685.208L739.516 -28.826L829.894 23.1307L975.102 -60H986.718L903.195 -12.0845L833.03 28.3263V218.084L897.328 254.973ZM328.17 318.476V508.002L363.311 528.438L493.475 603.14L609.642 536.521L658.896 508.233V318.476L588.848 278.065L493.417 223.568L423.717 263.632L328.17 318.476ZM496.612 607.932V797.747L625.731 872.045L661.568 892.655L719.651 859.46L827.222 797.632V607.932L673.417 519.663L661.801 513.082L496.612 607.932ZM709.835 533.634L830.3 602.91L934.966 542.871L995.489 508.233V318.476L915.16 272.292L830.184 223.568L760.484 263.632L664.937 318.476V507.829L709.835 533.634ZM325.44 513.082L160.077 607.932L159.903 797.632L325.44 892.539L354.831 875.624L490.803 797.632V607.932L325.44 513.082ZM328.519 897.677V1087.43L493.533 1182.34L659.245 1087.43V897.619L649.138 891.846L493.882 802.77L328.519 897.677ZM665.402 897.677V1087.43L830.126 1182.34L996.128 1087.43V897.677L830.765 802.77L665.402 897.677ZM999.047 -59.5998H1012.53L1079.84 -20.9785V-13.2408L999.047 -59.5998Z" fill="white"/>
<g filter="url(#filter0_d_13_322)">
<path d="M215 292C215 275.431 228.431 262 245 262H835C851.569 262 865 275.431 865 292V1127H215V292Z" fill="white"/>
</g>
<path d="M204 292C204 275.431 217.431 262 234 262H835C851.569 262 865 275.431 865 292V1083C865 1087.42 861.418 1091 857 1091H212C207.582 1091 204 1087.42 204 1083V292Z" fill="white"/>
<path d="M341.204 385.42C338.544 385.42 336.234 384.888 334.274 383.824C332.342 382.76 330.844 381.248 329.78 379.288C328.716 377.3 328.184 374.976 328.184 372.316V355.6H334.274V372.316C334.274 373.828 334.554 375.158 335.114 376.306C335.702 377.426 336.514 378.294 337.55 378.91C338.614 379.498 339.846 379.792 341.246 379.792C342.646 379.792 343.864 379.498 344.9 378.91C345.936 378.294 346.734 377.426 347.294 376.306C347.882 375.158 348.176 373.828 348.176 372.316V355.6H354.224V372.316C354.224 374.948 353.692 377.258 352.628 379.246C351.564 381.206 350.052 382.732 348.092 383.824C346.16 384.888 343.864 385.42 341.204 385.42ZM367.097 385.42C365.081 385.42 363.219 385.168 361.511 384.664C359.803 384.132 358.319 383.376 357.059 382.396L359.915 378.574C361.175 379.414 362.379 380.044 363.527 380.464C364.703 380.884 365.865 381.094 367.013 381.094C368.301 381.094 369.323 380.884 370.079 380.464C370.863 380.016 371.255 379.442 371.255 378.742C371.255 378.182 371.031 377.734 370.583 377.398C370.163 377.062 369.477 376.824 368.525 376.684L364.325 376.054C362.141 375.718 360.489 375.018 359.369 373.954C358.249 372.862 357.689 371.434 357.689 369.67C357.689 368.242 358.053 367.024 358.781 366.016C359.537 364.98 360.587 364.182 361.931 363.622C363.303 363.034 364.927 362.74 366.803 362.74C368.399 362.74 369.953 362.964 371.465 363.412C373.005 363.86 374.447 364.546 375.791 365.47L373.019 369.208C371.815 368.452 370.667 367.906 369.575 367.57C368.483 367.234 367.377 367.066 366.257 367.066C365.221 367.066 364.381 367.262 363.737 367.654C363.121 368.046 362.813 368.564 362.813 369.208C362.813 369.796 363.037 370.258 363.485 370.594C363.933 370.93 364.703 371.168 365.795 371.308L369.995 371.938C372.151 372.246 373.803 372.946 374.951 374.038C376.099 375.102 376.673 376.488 376.673 378.196C376.673 379.596 376.253 380.842 375.413 381.934C374.573 382.998 373.439 383.852 372.011 384.496C370.583 385.112 368.945 385.42 367.097 385.42ZM390.453 385.42C388.269 385.42 386.281 384.916 384.489 383.908C382.725 382.9 381.325 381.542 380.289 379.834C379.253 378.126 378.735 376.208 378.735 374.08C378.735 371.952 379.225 370.034 380.205 368.326C381.213 366.618 382.571 365.26 384.279 364.252C385.987 363.244 387.891 362.74 389.991 362.74C392.091 362.74 393.953 363.258 395.577 364.294C397.201 365.33 398.475 366.73 399.399 368.494C400.351 370.258 400.827 372.26 400.827 374.5V376.012H384.615C384.867 376.88 385.273 377.664 385.833 378.364C386.421 379.064 387.135 379.61 387.975 380.002C388.843 380.394 389.767 380.59 390.747 380.59C391.727 380.59 392.623 380.436 393.435 380.128C394.275 379.82 394.989 379.386 395.577 378.826L399.357 382.27C398.013 383.362 396.627 384.16 395.199 384.664C393.799 385.168 392.217 385.42 390.453 385.42ZM384.531 371.896H395.157C394.961 371.028 394.597 370.272 394.065 369.628C393.561 368.956 392.945 368.438 392.217 368.074C391.517 367.682 390.733 367.486 389.865 367.486C388.969 367.486 388.157 367.668 387.429 368.032C386.729 368.396 386.127 368.914 385.623 369.586C385.119 370.23 384.755 371 384.531 371.896ZM404.352 385V363.118H410.106V365.554C410.806 364.602 411.646 363.874 412.626 363.37C413.606 362.866 414.712 362.614 415.944 362.614C417.008 362.642 417.806 362.81 418.338 363.118V368.158C417.918 367.962 417.456 367.822 416.952 367.738C416.448 367.626 415.93 367.57 415.398 367.57C414.278 367.57 413.256 367.85 412.332 368.41C411.408 368.97 410.666 369.768 410.106 370.804V385H404.352ZM430.324 385V355.6H452.92V360.892H436.414V367.612H447.292V372.736H436.414V379.708H453.088V385H430.324ZM454.377 385L462.777 373.87L454.587 363.118H461.265L466.095 369.628L470.883 363.118H477.351L469.287 373.786L477.855 385H471.135L465.969 378.028L460.803 385H454.377ZM480.026 393.568V363.118H485.696V364.924C487.488 363.524 489.56 362.824 491.912 362.824C493.984 362.824 495.86 363.328 497.54 364.336C499.22 365.344 500.55 366.702 501.53 368.41C502.538 370.09 503.042 371.98 503.042 374.08C503.042 376.18 502.538 378.084 501.53 379.792C500.522 381.472 499.164 382.816 497.456 383.824C495.748 384.804 493.844 385.294 491.744 385.294C490.652 385.294 489.602 385.154 488.594 384.874C487.586 384.566 486.648 384.132 485.78 383.572V393.568H480.026ZM490.988 380.422C492.192 380.422 493.27 380.142 494.222 379.582C495.202 379.022 495.972 378.266 496.532 377.314C497.092 376.362 497.372 375.284 497.372 374.08C497.372 372.876 497.092 371.798 496.532 370.846C495.972 369.866 495.202 369.11 494.222 368.578C493.27 368.018 492.192 367.738 490.988 367.738C489.924 367.738 488.944 367.92 488.048 368.284C487.18 368.62 486.424 369.138 485.78 369.838V378.364C486.396 378.98 487.152 379.484 488.048 379.876C488.972 380.24 489.952 380.422 490.988 380.422ZM517.273 385.42C515.089 385.42 513.101 384.916 511.309 383.908C509.545 382.9 508.145 381.542 507.109 379.834C506.073 378.126 505.555 376.208 505.555 374.08C505.555 371.952 506.045 370.034 507.025 368.326C508.033 366.618 509.391 365.26 511.099 364.252C512.807 363.244 514.711 362.74 516.811 362.74C518.911 362.74 520.773 363.258 522.397 364.294C524.021 365.33 525.295 366.73 526.219 368.494C527.171 370.258 527.647 372.26 527.647 374.5V376.012H511.435C511.687 376.88 512.093 377.664 512.653 378.364C513.241 379.064 513.955 379.61 514.795 380.002C515.663 380.394 516.587 380.59 517.567 380.59C518.547 380.59 519.443 380.436 520.255 380.128C521.095 379.82 521.809 379.386 522.397 378.826L526.177 382.27C524.833 383.362 523.447 384.16 522.019 384.664C520.619 385.168 519.037 385.42 517.273 385.42ZM511.351 371.896H521.977C521.781 371.028 521.417 370.272 520.885 369.628C520.381 368.956 519.765 368.438 519.037 368.074C518.337 367.682 517.553 367.486 516.685 367.486C515.789 367.486 514.977 367.668 514.249 368.032C513.549 368.396 512.947 368.914 512.443 369.586C511.939 370.23 511.575 371 511.351 371.896ZM531.172 385V363.118H536.926V365.554C537.626 364.602 538.466 363.874 539.446 363.37C540.426 362.866 541.532 362.614 542.764 362.614C543.828 362.642 544.626 362.81 545.158 363.118V368.158C544.738 367.962 544.276 367.822 543.772 367.738C543.268 367.626 542.75 367.57 542.218 367.57C541.098 367.57 540.076 367.85 539.152 368.41C538.228 368.97 537.486 369.768 536.926 370.804V385H531.172ZM548.317 385V363.118H554.071V385H548.317ZM551.173 360.514C550.277 360.514 549.507 360.192 548.863 359.548C548.219 358.904 547.897 358.134 547.897 357.238C547.897 356.314 548.219 355.544 548.863 354.928C549.507 354.284 550.277 353.962 551.173 353.962C552.097 353.962 552.867 354.284 553.483 354.928C554.127 355.544 554.449 356.314 554.449 357.238C554.449 358.134 554.127 358.904 553.483 359.548C552.867 360.192 552.097 360.514 551.173 360.514ZM569.281 385.42C567.097 385.42 565.109 384.916 563.317 383.908C561.553 382.9 560.153 381.542 559.117 379.834C558.081 378.126 557.563 376.208 557.563 374.08C557.563 371.952 558.053 370.034 559.033 368.326C560.041 366.618 561.399 365.26 563.107 364.252C564.815 363.244 566.719 362.74 568.819 362.74C570.919 362.74 572.781 363.258 574.405 364.294C576.029 365.33 577.303 366.73 578.227 368.494C579.179 370.258 579.655 372.26 579.655 374.5V376.012H563.443C563.695 376.88 564.101 377.664 564.661 378.364C565.249 379.064 565.963 379.61 566.803 380.002C567.671 380.394 568.595 380.59 569.575 380.59C570.555 380.59 571.451 380.436 572.263 380.128C573.103 379.82 573.817 379.386 574.405 378.826L578.185 382.27C576.841 383.362 575.455 384.16 574.027 384.664C572.627 385.168 571.045 385.42 569.281 385.42ZM563.359 371.896H573.985C573.789 371.028 573.425 370.272 572.893 369.628C572.389 368.956 571.773 368.438 571.045 368.074C570.345 367.682 569.561 367.486 568.693 367.486C567.797 367.486 566.985 367.668 566.257 368.032C565.557 368.396 564.955 368.914 564.451 369.586C563.947 370.23 563.583 371 563.359 371.896ZM583.18 385V363.118H588.934V364.924C590.586 363.44 592.63 362.698 595.066 362.698C596.774 362.698 598.272 363.076 599.56 363.832C600.876 364.56 601.898 365.582 602.626 366.898C603.354 368.186 603.718 369.698 603.718 371.434V385H597.964V372.274C597.964 370.846 597.558 369.726 596.746 368.914C595.934 368.074 594.828 367.654 593.428 367.654C592.448 367.654 591.58 367.85 590.824 368.242C590.068 368.606 589.438 369.138 588.934 369.838V385H583.18ZM618.535 385.42C616.379 385.42 614.433 384.93 612.697 383.95C610.961 382.942 609.589 381.584 608.581 379.876C607.573 378.14 607.069 376.208 607.069 374.08C607.069 371.924 607.573 369.992 608.581 368.284C609.589 366.576 610.961 365.218 612.697 364.21C614.433 363.202 616.379 362.698 618.535 362.698C620.271 362.698 621.923 363.034 623.491 363.706C625.087 364.378 626.459 365.344 627.607 366.604L624.079 370.342C623.267 369.446 622.413 368.788 621.517 368.368C620.649 367.92 619.697 367.696 618.661 367.696C617.541 367.696 616.533 367.976 615.637 368.536C614.769 369.096 614.069 369.852 613.537 370.804C613.033 371.756 612.781 372.848 612.781 374.08C612.781 375.256 613.033 376.334 613.537 377.314C614.069 378.266 614.797 379.022 615.721 379.582C616.645 380.114 617.667 380.38 618.787 380.38C619.767 380.38 620.677 380.184 621.517 379.792C622.385 379.372 623.211 378.756 623.995 377.944L627.439 381.556C626.319 382.76 624.975 383.712 623.407 384.412C621.839 385.084 620.215 385.42 618.535 385.42ZM640.525 385.42C638.341 385.42 636.353 384.916 634.561 383.908C632.797 382.9 631.397 381.542 630.361 379.834C629.325 378.126 628.807 376.208 628.807 374.08C628.807 371.952 629.297 370.034 630.277 368.326C631.285 366.618 632.643 365.26 634.351 364.252C636.059 363.244 637.963 362.74 640.063 362.74C642.163 362.74 644.025 363.258 645.649 364.294C647.273 365.33 648.547 366.73 649.471 368.494C650.423 370.258 650.899 372.26 650.899 374.5V376.012H634.687C634.939 376.88 635.345 377.664 635.905 378.364C636.493 379.064 637.207 379.61 638.047 380.002C638.915 380.394 639.839 380.59 640.819 380.59C641.799 380.59 642.695 380.436 643.507 380.128C644.347 379.82 645.061 379.386 645.649 378.826L649.429 382.27C648.085 383.362 646.699 384.16 645.271 384.664C643.871 385.168 642.289 385.42 640.525 385.42ZM634.603 371.896H645.229C645.033 371.028 644.669 370.272 644.137 369.628C643.633 368.956 643.017 368.438 642.289 368.074C641.589 367.682 640.805 367.486 639.937 367.486C639.041 367.486 638.229 367.668 637.501 368.032C636.801 368.396 636.199 368.914 635.695 369.586C635.191 370.23 634.827 371 634.603 371.896ZM663.251 385V355.6H677.993C679.925 355.6 681.619 355.992 683.075 356.776C684.559 357.56 685.721 358.652 686.561 360.052C687.429 361.424 687.863 363.02 687.863 364.84C687.863 366.576 687.429 368.13 686.561 369.502C685.721 370.874 684.559 371.952 683.075 372.736C681.591 373.52 679.897 373.912 677.993 373.912H669.341V385H663.251ZM669.341 368.872H677.321C678.637 368.872 679.687 368.508 680.471 367.78C681.283 367.052 681.689 366.086 681.689 364.882C681.689 363.65 681.283 362.67 680.471 361.942C679.687 361.214 678.637 360.85 677.321 360.85H669.341V368.872ZM700.079 385.42C697.895 385.42 695.921 384.916 694.157 383.908C692.393 382.9 690.993 381.542 689.957 379.834C688.921 378.126 688.403 376.208 688.403 374.08C688.403 371.952 688.907 370.034 689.915 368.326C690.951 366.59 692.351 365.218 694.115 364.21C695.907 363.202 697.895 362.698 700.079 362.698C702.263 362.698 704.237 363.202 706.001 364.21C707.793 365.218 709.193 366.59 710.201 368.326C711.237 370.034 711.755 371.952 711.755 374.08C711.755 376.208 711.237 378.126 710.201 379.834C709.193 381.542 707.807 382.9 706.043 383.908C704.279 384.916 702.291 385.42 700.079 385.42ZM700.079 380.422C701.227 380.422 702.249 380.142 703.145 379.582C704.069 379.022 704.797 378.266 705.329 377.314C705.889 376.334 706.169 375.256 706.169 374.08C706.169 372.876 705.889 371.798 705.329 370.846C704.797 369.894 704.069 369.138 703.145 368.578C702.249 367.99 701.227 367.696 700.079 367.696C698.959 367.696 697.937 367.99 697.013 368.578C696.089 369.138 695.361 369.894 694.829 370.846C694.297 371.798 694.031 372.876 694.031 374.08C694.031 375.256 694.297 376.334 694.829 377.314C695.361 378.266 696.089 379.022 697.013 379.582C697.937 380.142 698.959 380.422 700.079 380.422ZM715.291 385V355.6L721.045 354.634V385H715.291ZM725.545 385V355.6L731.299 354.634V385H725.545ZM743.989 385.42C741.973 385.42 740.111 385.168 738.403 384.664C736.695 384.132 735.211 383.376 733.951 382.396L736.807 378.574C738.067 379.414 739.271 380.044 740.419 380.464C741.595 380.884 742.757 381.094 743.905 381.094C745.193 381.094 746.215 380.884 746.971 380.464C747.755 380.016 748.147 379.442 748.147 378.742C748.147 378.182 747.923 377.734 747.475 377.398C747.055 377.062 746.369 376.824 745.417 376.684L741.217 376.054C739.033 375.718 737.381 375.018 736.261 373.954C735.141 372.862 734.581 371.434 734.581 369.67C734.581 368.242 734.945 367.024 735.673 366.016C736.429 364.98 737.479 364.182 738.823 363.622C740.195 363.034 741.819 362.74 743.695 362.74C745.291 362.74 746.845 362.964 748.357 363.412C749.897 363.86 751.339 364.546 752.683 365.47L749.911 369.208C748.707 368.452 747.559 367.906 746.467 367.57C745.375 367.234 744.269 367.066 743.149 367.066C742.113 367.066 741.273 367.262 740.629 367.654C740.013 368.046 739.705 368.564 739.705 369.208C739.705 369.796 739.929 370.258 740.377 370.594C740.825 370.93 741.595 371.168 742.687 371.308L746.887 371.938C749.043 372.246 750.695 372.946 751.843 374.038C752.991 375.102 753.565 376.488 753.565 378.196C753.565 379.596 753.145 380.842 752.305 381.934C751.465 382.998 750.331 383.852 748.903 384.496C747.475 385.112 745.837 385.42 743.989 385.42Z" fill="#212121"/>
<rect x="93" y="739" width="715" height="108" rx="24" fill="#EDEDED"/>
<g filter="url(#filter1_d_13_322)">
<rect x="93" y="739" width="412" height="108" rx="24" fill="url(#paint0_linear_13_322)"/>
</g>
<path d="M162.975 807.385C159.592 807.385 156.663 806.288 154.19 804.095L156.92 800.91C157.97 801.797 158.985 802.438 159.965 802.835C160.945 803.232 162.018 803.43 163.185 803.43C164.142 803.43 164.97 803.255 165.67 802.905C166.37 802.555 166.918 802.065 167.315 801.435C167.735 800.805 167.945 800.07 167.945 799.23C167.945 798.04 167.478 797.06 166.545 796.29C165.635 795.52 164.445 795.135 162.975 795.135C162.252 795.135 161.517 795.24 160.77 795.45C160.023 795.637 159.265 795.94 158.495 796.36L155.31 795.415L155.87 782.5H171.305V786.42H159.72L159.44 792.755C160.233 792.358 161.038 792.067 161.855 791.88C162.672 791.67 163.523 791.565 164.41 791.565C166.067 791.565 167.502 791.88 168.715 792.51C169.952 793.117 170.908 793.98 171.585 795.1C172.262 796.22 172.6 797.527 172.6 799.02C172.6 800.677 172.192 802.135 171.375 803.395C170.582 804.655 169.462 805.635 168.015 806.335C166.568 807.035 164.888 807.385 162.975 807.385ZM186.059 807.385C183.936 807.385 182.057 806.86 180.424 805.81C178.814 804.737 177.554 803.255 176.644 801.365C175.757 799.452 175.314 797.247 175.314 794.75C175.314 792.23 175.757 790.025 176.644 788.135C177.554 786.245 178.814 784.775 180.424 783.725C182.057 782.652 183.936 782.115 186.059 782.115C188.206 782.115 190.084 782.652 191.694 783.725C193.327 784.775 194.587 786.245 195.474 788.135C196.384 790.025 196.839 792.23 196.839 794.75C196.839 797.247 196.384 799.452 195.474 801.365C194.587 803.255 193.327 804.737 191.694 805.81C190.084 806.86 188.206 807.385 186.059 807.385ZM186.059 803.22C187.319 803.22 188.404 802.882 189.314 802.205C190.224 801.528 190.924 800.548 191.414 799.265C191.927 797.982 192.184 796.477 192.184 794.75C192.184 793 191.927 791.495 191.414 790.235C190.924 788.952 190.224 787.972 189.314 787.295C188.404 786.618 187.319 786.28 186.059 786.28C184.822 786.28 183.749 786.618 182.839 787.295C181.929 787.972 181.217 788.952 180.704 790.235C180.214 791.495 179.969 793 179.969 794.75C179.969 796.477 180.214 797.982 180.704 799.265C181.217 800.548 181.929 801.528 182.839 802.205C183.749 802.882 184.822 803.22 186.059 803.22ZM204.419 794.925C202.715 794.925 201.35 794.353 200.324 793.21C199.32 792.043 198.819 790.503 198.819 788.59C198.819 786.723 199.332 785.207 200.359 784.04C201.385 782.873 202.739 782.29 204.419 782.29C206.075 782.29 207.417 782.873 208.444 784.04C209.47 785.207 209.984 786.723 209.984 788.59C209.984 790.503 209.47 792.043 208.444 793.21C207.44 794.353 206.099 794.925 204.419 794.925ZM204.419 792.37C205.259 792.37 205.912 792.043 206.379 791.39C206.869 790.713 207.114 789.78 207.114 788.59C207.114 787.447 206.869 786.537 206.379 785.86C205.889 785.183 205.235 784.845 204.419 784.845C203.579 784.845 202.914 785.183 202.424 785.86C201.957 786.537 201.712 787.447 201.689 788.59C201.712 789.78 201.957 790.713 202.424 791.39C202.89 792.043 203.555 792.37 204.419 792.37ZM203.054 807L216.914 782.5H220.484L206.624 807H203.054ZM219.469 807.175C217.765 807.175 216.4 806.603 215.374 805.46C214.37 804.293 213.869 802.753 213.869 800.84C213.869 798.973 214.382 797.457 215.409 796.29C216.435 795.123 217.789 794.54 219.469 794.54C221.125 794.54 222.467 795.123 223.494 796.29C224.52 797.457 225.034 798.973 225.034 800.84C225.034 802.753 224.52 804.293 223.494 805.46C222.49 806.603 221.149 807.175 219.469 807.175ZM219.469 804.62C220.309 804.62 220.962 804.293 221.429 803.64C221.919 802.963 222.164 802.03 222.164 800.84C222.164 799.697 221.919 798.787 221.429 798.11C220.939 797.433 220.285 797.095 219.469 797.095C218.629 797.095 217.964 797.433 217.474 798.11C217.007 798.787 216.762 799.697 216.739 800.84C216.762 802.03 217.007 802.963 217.474 803.64C217.94 804.293 218.605 804.62 219.469 804.62Z" fill="white"/>
<path d="M601.287 807L611.402 782.5H615.742L625.752 807H621.762L618.927 799.825H607.972L605.102 807H601.287ZM609.162 796.78H617.737L613.467 786L609.162 796.78ZM629.611 807L624.641 789.185H628.036L631.501 802.275L635.561 789.185H638.571L642.631 802.275L646.096 789.185H649.386L644.381 807H641.021L637.031 793.945L633.006 807H629.611ZM660.084 807.315C658.334 807.315 656.748 806.907 655.324 806.09C653.924 805.273 652.804 804.165 651.964 802.765C651.148 801.365 650.739 799.802 650.739 798.075C650.739 796.372 651.136 794.832 651.929 793.455C652.723 792.055 653.796 790.947 655.149 790.13C656.503 789.29 658.008 788.87 659.664 788.87C661.321 788.87 662.791 789.29 664.074 790.13C665.358 790.947 666.373 792.067 667.119 793.49C667.889 794.89 668.274 796.477 668.274 798.25V799.23H654.239C654.426 800.21 654.788 801.085 655.324 801.855C655.884 802.625 656.584 803.232 657.424 803.675C658.288 804.118 659.221 804.34 660.224 804.34C661.088 804.34 661.916 804.212 662.709 803.955C663.526 803.675 664.203 803.278 664.739 802.765L666.979 804.97C665.929 805.763 664.844 806.358 663.724 806.755C662.628 807.128 661.414 807.315 660.084 807.315ZM654.274 796.605H664.809C664.669 795.672 664.343 794.855 663.829 794.155C663.339 793.432 662.721 792.872 661.974 792.475C661.251 792.055 660.458 791.845 659.594 791.845C658.708 791.845 657.891 792.043 657.144 792.44C656.398 792.837 655.768 793.397 655.254 794.12C654.764 794.82 654.438 795.648 654.274 796.605ZM677.904 807.35C676.364 807.35 674.917 807.128 673.564 806.685C672.234 806.218 671.079 805.565 670.099 804.725L672.024 802.415C672.934 803.138 673.867 803.698 674.824 804.095C675.804 804.468 676.796 804.655 677.799 804.655C679.059 804.655 680.086 804.41 680.879 803.92C681.672 803.43 682.069 802.788 682.069 801.995C682.069 801.342 681.836 800.828 681.369 800.455C680.902 800.082 680.179 799.825 679.199 799.685L675.979 799.23C674.206 798.973 672.876 798.425 671.989 797.585C671.102 796.745 670.659 795.625 670.659 794.225C670.659 793.152 670.951 792.218 671.534 791.425C672.117 790.608 672.934 789.978 673.984 789.535C675.034 789.068 676.259 788.835 677.659 788.835C678.942 788.835 680.179 789.022 681.369 789.395C682.559 789.768 683.702 790.352 684.799 791.145L683.014 793.455C682.034 792.802 681.077 792.323 680.144 792.02C679.234 791.717 678.312 791.565 677.379 791.565C676.306 791.565 675.442 791.798 674.789 792.265C674.136 792.708 673.809 793.292 673.809 794.015C673.809 794.668 674.031 795.182 674.474 795.555C674.941 795.905 675.699 796.15 676.749 796.29L679.969 796.745C681.742 797.002 683.084 797.55 683.994 798.39C684.904 799.207 685.359 800.315 685.359 801.715C685.359 802.788 685.032 803.757 684.379 804.62C683.726 805.46 682.839 806.125 681.719 806.615C680.599 807.105 679.327 807.35 677.904 807.35ZM696.689 807.35C694.963 807.35 693.388 806.942 691.964 806.125C690.564 805.308 689.456 804.2 688.639 802.8C687.823 801.4 687.414 799.837 687.414 798.11C687.414 796.383 687.823 794.82 688.639 793.42C689.456 792.02 690.564 790.912 691.964 790.095C693.388 789.255 694.963 788.835 696.689 788.835C698.439 788.835 700.014 789.255 701.414 790.095C702.814 790.912 703.923 792.02 704.739 793.42C705.556 794.82 705.964 796.383 705.964 798.11C705.964 799.837 705.556 801.4 704.739 802.8C703.923 804.2 702.814 805.308 701.414 806.125C700.014 806.942 698.439 807.35 696.689 807.35ZM696.689 804.27C697.786 804.27 698.778 804.002 699.664 803.465C700.551 802.905 701.251 802.158 701.764 801.225C702.278 800.292 702.534 799.242 702.534 798.075C702.534 796.932 702.266 795.905 701.729 794.995C701.216 794.062 700.516 793.315 699.629 792.755C698.766 792.195 697.786 791.915 696.689 791.915C695.593 791.915 694.601 792.195 693.714 792.755C692.851 793.315 692.151 794.062 691.614 794.995C691.101 795.905 690.844 796.932 690.844 798.075C690.844 799.242 691.101 800.292 691.614 801.225C692.128 802.158 692.828 802.905 693.714 803.465C694.601 804.002 695.593 804.27 696.689 804.27ZM709.274 807V789.185H712.774V790.9C714.104 789.523 715.772 788.835 717.779 788.835C718.992 788.835 720.066 789.103 720.999 789.64C721.956 790.177 722.714 790.9 723.274 791.81C724.021 790.83 724.896 790.095 725.899 789.605C726.902 789.092 728.034 788.835 729.294 788.835C730.624 788.835 731.779 789.127 732.759 789.71C733.762 790.293 734.544 791.11 735.104 792.16C735.687 793.21 735.979 794.423 735.979 795.8V807H732.479V796.395C732.479 794.995 732.106 793.898 731.359 793.105C730.636 792.288 729.644 791.88 728.384 791.88C727.521 791.88 726.739 792.078 726.039 792.475C725.339 792.872 724.732 793.478 724.219 794.295C724.266 794.528 724.301 794.773 724.324 795.03C724.347 795.287 724.359 795.543 724.359 795.8V807H720.894V796.395C720.894 794.995 720.521 793.898 719.774 793.105C719.051 792.288 718.059 791.88 716.799 791.88C715.959 791.88 715.201 792.067 714.524 792.44C713.847 792.79 713.264 793.327 712.774 794.05V807H709.274ZM748.542 807.315C746.792 807.315 745.205 806.907 743.782 806.09C742.382 805.273 741.262 804.165 740.422 802.765C739.605 801.365 739.197 799.802 739.197 798.075C739.197 796.372 739.593 794.832 740.387 793.455C741.18 792.055 742.253 790.947 743.607 790.13C744.96 789.29 746.465 788.87 748.122 788.87C749.778 788.87 751.248 789.29 752.532 790.13C753.815 790.947 754.83 792.067 755.577 793.49C756.347 794.89 756.732 796.477 756.732 798.25V799.23H742.697C742.883 800.21 743.245 801.085 743.782 801.855C744.342 802.625 745.042 803.232 745.882 803.675C746.745 804.118 747.678 804.34 748.682 804.34C749.545 804.34 750.373 804.212 751.167 803.955C751.983 803.675 752.66 803.278 753.197 802.765L755.437 804.97C754.387 805.763 753.302 806.358 752.182 806.755C751.085 807.128 749.872 807.315 748.542 807.315ZM742.732 796.605H753.267C753.127 795.672 752.8 794.855 752.287 794.155C751.797 793.432 751.178 792.872 750.432 792.475C749.708 792.055 748.915 791.845 748.052 791.845C747.165 791.845 746.348 792.043 745.602 792.44C744.855 792.837 744.225 793.397 743.712 794.12C743.222 794.82 742.895 795.648 742.732 796.605Z" fill="#2B2B2B"/>
<rect x="93" y="878" width="715" height="108" rx="24" fill="#EDEDED"/>
<g filter="url(#filter2_d_13_322)">
<rect x="93" y="878" width="174.892" height="108" rx="24" fill="url(#paint1_linear_13_322)"/>
</g>
<path d="M158.53 946V926.365L153.735 928.36V924.16L160.28 921.5H163.325V946H158.53ZM177.172 946.385C175.049 946.385 173.17 945.86 171.537 944.81C169.927 943.737 168.667 942.255 167.757 940.365C166.87 938.452 166.427 936.247 166.427 933.75C166.427 931.23 166.87 929.025 167.757 927.135C168.667 925.245 169.927 923.775 171.537 922.725C173.17 921.652 175.049 921.115 177.172 921.115C179.319 921.115 181.197 921.652 182.807 922.725C184.44 923.775 185.7 925.245 186.587 927.135C187.497 929.025 187.952 931.23 187.952 933.75C187.952 936.247 187.497 938.452 186.587 940.365C185.7 942.255 184.44 943.737 182.807 944.81C181.197 945.86 179.319 946.385 177.172 946.385ZM177.172 942.22C178.432 942.22 179.517 941.882 180.427 941.205C181.337 940.528 182.037 939.548 182.527 938.265C183.04 936.982 183.297 935.477 183.297 933.75C183.297 932 183.04 930.495 182.527 929.235C182.037 927.952 181.337 926.972 180.427 926.295C179.517 925.618 178.432 925.28 177.172 925.28C175.935 925.28 174.862 925.618 173.952 926.295C173.042 926.972 172.33 927.952 171.817 929.235C171.327 930.495 171.082 932 171.082 933.75C171.082 935.477 171.327 936.982 171.817 938.265C172.33 939.548 173.042 940.528 173.952 941.205C174.862 941.882 175.935 942.22 177.172 942.22ZM195.532 933.925C193.829 933.925 192.464 933.353 191.437 932.21C190.434 931.043 189.932 929.503 189.932 927.59C189.932 925.723 190.445 924.207 191.472 923.04C192.499 921.873 193.852 921.29 195.532 921.29C197.189 921.29 198.53 921.873 199.557 923.04C200.584 924.207 201.097 925.723 201.097 927.59C201.097 929.503 200.584 931.043 199.557 932.21C198.554 933.353 197.212 933.925 195.532 933.925ZM195.532 931.37C196.372 931.37 197.025 931.043 197.492 930.39C197.982 929.713 198.227 928.78 198.227 927.59C198.227 926.447 197.982 925.537 197.492 924.86C197.002 924.183 196.349 923.845 195.532 923.845C194.692 923.845 194.027 924.183 193.537 924.86C193.07 925.537 192.825 926.447 192.802 927.59C192.825 928.78 193.07 929.713 193.537 930.39C194.004 931.043 194.669 931.37 195.532 931.37ZM194.167 946L208.027 921.5H211.597L197.737 946H194.167ZM210.582 946.175C208.879 946.175 207.514 945.603 206.487 944.46C205.484 943.293 204.982 941.753 204.982 939.84C204.982 937.973 205.495 936.457 206.522 935.29C207.549 934.123 208.902 933.54 210.582 933.54C212.239 933.54 213.58 934.123 214.607 935.29C215.634 936.457 216.147 937.973 216.147 939.84C216.147 941.753 215.634 943.293 214.607 944.46C213.604 945.603 212.262 946.175 210.582 946.175ZM210.582 943.62C211.422 943.62 212.075 943.293 212.542 942.64C213.032 941.963 213.277 941.03 213.277 939.84C213.277 938.697 213.032 937.787 212.542 937.11C212.052 936.433 211.399 936.095 210.582 936.095C209.742 936.095 209.077 936.433 208.587 937.11C208.12 937.787 207.875 938.697 207.852 939.84C207.875 941.03 208.12 941.963 208.587 942.64C209.054 943.293 209.719 943.62 210.582 943.62Z" fill="white"/>
<path d="M684.196 945V920.5H695.536C697.146 920.5 698.546 920.815 699.736 921.445C700.926 922.052 701.859 922.903 702.536 924C703.213 925.097 703.551 926.368 703.551 927.815C703.551 929.262 703.213 930.533 702.536 931.63C701.859 932.727 700.914 933.59 699.701 934.22C698.511 934.827 697.123 935.13 695.536 935.13H687.871V945H684.196ZM687.871 932.015H695.151C696.598 932.015 697.741 931.642 698.581 930.895C699.444 930.125 699.876 929.11 699.876 927.85C699.876 926.59 699.444 925.587 698.581 924.84C697.741 924.093 696.598 923.72 695.151 923.72H687.871V932.015ZM713.437 945.35C711.711 945.35 710.136 944.942 708.712 944.125C707.312 943.308 706.204 942.2 705.387 940.8C704.571 939.4 704.162 937.837 704.162 936.11C704.162 934.383 704.571 932.82 705.387 931.42C706.204 930.02 707.312 928.912 708.712 928.095C710.136 927.255 711.711 926.835 713.437 926.835C715.187 926.835 716.762 927.255 718.162 928.095C719.562 928.912 720.671 930.02 721.487 931.42C722.304 932.82 722.712 934.383 722.712 936.11C722.712 937.837 722.304 939.4 721.487 940.8C720.671 942.2 719.562 943.308 718.162 944.125C716.762 944.942 715.187 945.35 713.437 945.35ZM713.437 942.27C714.534 942.27 715.526 942.002 716.412 941.465C717.299 940.905 717.999 940.158 718.512 939.225C719.026 938.292 719.282 937.242 719.282 936.075C719.282 934.932 719.014 933.905 718.477 932.995C717.964 932.062 717.264 931.315 716.377 930.755C715.514 930.195 714.534 929.915 713.437 929.915C712.341 929.915 711.349 930.195 710.462 930.755C709.599 931.315 708.899 932.062 708.362 932.995C707.849 933.905 707.592 934.932 707.592 936.075C707.592 937.242 707.849 938.292 708.362 939.225C708.876 940.158 709.576 940.905 710.462 941.465C711.349 942.002 712.341 942.27 713.437 942.27ZM734.492 945.35C732.765 945.35 731.19 944.942 729.767 944.125C728.367 943.308 727.259 942.2 726.442 940.8C725.625 939.4 725.217 937.837 725.217 936.11C725.217 934.383 725.625 932.82 726.442 931.42C727.259 930.02 728.367 928.912 729.767 928.095C731.19 927.255 732.765 926.835 734.492 926.835C736.242 926.835 737.817 927.255 739.217 928.095C740.617 928.912 741.725 930.02 742.542 931.42C743.359 932.82 743.767 934.383 743.767 936.11C743.767 937.837 743.359 939.4 742.542 940.8C741.725 942.2 740.617 943.308 739.217 944.125C737.817 944.942 736.242 945.35 734.492 945.35ZM734.492 942.27C735.589 942.27 736.58 942.002 737.467 941.465C738.354 940.905 739.054 940.158 739.567 939.225C740.08 938.292 740.337 937.242 740.337 936.075C740.337 934.932 740.069 933.905 739.532 932.995C739.019 932.062 738.319 931.315 737.432 930.755C736.569 930.195 735.589 929.915 734.492 929.915C733.395 929.915 732.404 930.195 731.517 930.755C730.654 931.315 729.954 932.062 729.417 932.995C728.904 933.905 728.647 934.932 728.647 936.075C728.647 937.242 728.904 938.292 729.417 939.225C729.93 940.158 730.63 940.905 731.517 941.465C732.404 942.002 733.395 942.27 734.492 942.27ZM747.077 945V927.185H750.577V929.46C751.137 928.62 751.825 927.967 752.642 927.5C753.482 927.01 754.427 926.765 755.477 926.765C756.2 926.788 756.795 926.893 757.262 927.08V930.23C756.935 930.09 756.597 929.997 756.247 929.95C755.897 929.88 755.547 929.845 755.197 929.845C754.17 929.845 753.26 930.125 752.467 930.685C751.673 931.222 751.043 932.015 750.577 933.065V945H747.077Z" fill="#2B2B2B"/>
<rect x="93" y="463" width="715" height="108" rx="24" fill="#EDEDED"/>
<g filter="url(#filter3_d_13_322)">
<rect x="93" y="463" width="239.191" height="108" rx="24" fill="url(#paint2_linear_13_322)"/>
</g>
<path d="M158.53 531V511.365L153.735 513.36V509.16L160.28 506.5H163.325V531H158.53ZM176.192 531.385C174.372 531.385 172.762 531.082 171.362 530.475C169.962 529.845 168.865 528.993 168.072 527.92C167.279 526.823 166.882 525.575 166.882 524.175C166.882 523.265 167.08 522.425 167.477 521.655C167.897 520.862 168.48 520.185 169.227 519.625C169.997 519.042 170.86 518.61 171.817 518.33C170.58 517.887 169.577 517.187 168.807 516.23C168.037 515.273 167.652 514.2 167.652 513.01C167.652 511.703 168.025 510.537 168.772 509.51C169.519 508.46 170.534 507.632 171.817 507.025C173.124 506.418 174.582 506.115 176.192 506.115C177.825 506.115 179.284 506.418 180.567 507.025C181.85 507.632 182.865 508.46 183.612 509.51C184.359 510.537 184.732 511.703 184.732 513.01C184.732 514.2 184.347 515.273 183.577 516.23C182.807 517.187 181.804 517.887 180.567 518.33C182.037 518.773 183.227 519.52 184.137 520.57C185.047 521.597 185.502 522.798 185.502 524.175C185.502 525.575 185.105 526.823 184.312 527.92C183.542 528.993 182.445 529.845 181.022 530.475C179.622 531.082 178.012 531.385 176.192 531.385ZM176.192 516.72C176.962 516.72 177.65 516.58 178.257 516.3C178.887 515.997 179.377 515.588 179.727 515.075C180.077 514.562 180.252 513.978 180.252 513.325C180.252 512.672 180.077 512.088 179.727 511.575C179.377 511.038 178.887 510.63 178.257 510.35C177.65 510.047 176.962 509.895 176.192 509.895C175.422 509.895 174.722 510.047 174.092 510.35C173.485 510.63 173.007 511.038 172.657 511.575C172.307 512.088 172.132 512.672 172.132 513.325C172.132 513.978 172.307 514.562 172.657 515.075C173.007 515.588 173.485 515.997 174.092 516.3C174.722 516.58 175.422 516.72 176.192 516.72ZM176.192 527.57C177.125 527.57 177.942 527.418 178.642 527.115C179.342 526.788 179.89 526.345 180.287 525.785C180.684 525.202 180.882 524.56 180.882 523.86C180.882 523.137 180.684 522.495 180.287 521.935C179.89 521.375 179.342 520.932 178.642 520.605C177.942 520.278 177.125 520.115 176.192 520.115C175.282 520.115 174.465 520.278 173.742 520.605C173.042 520.932 172.494 521.375 172.097 521.935C171.7 522.495 171.502 523.137 171.502 523.86C171.502 524.56 171.7 525.202 172.097 525.785C172.494 526.345 173.042 526.788 173.742 527.115C174.465 527.418 175.282 527.57 176.192 527.57ZM193.721 518.925C192.017 518.925 190.652 518.353 189.626 517.21C188.622 516.043 188.121 514.503 188.121 512.59C188.121 510.723 188.634 509.207 189.661 508.04C190.687 506.873 192.041 506.29 193.721 506.29C195.377 506.29 196.719 506.873 197.746 508.04C198.772 509.207 199.286 510.723 199.286 512.59C199.286 514.503 198.772 516.043 197.746 517.21C196.742 518.353 195.401 518.925 193.721 518.925ZM193.721 516.37C194.561 516.37 195.214 516.043 195.681 515.39C196.171 514.713 196.416 513.78 196.416 512.59C196.416 511.447 196.171 510.537 195.681 509.86C195.191 509.183 194.537 508.845 193.721 508.845C192.881 508.845 192.216 509.183 191.726 509.86C191.259 510.537 191.014 511.447 190.991 512.59C191.014 513.78 191.259 514.713 191.726 515.39C192.192 516.043 192.857 516.37 193.721 516.37ZM192.356 531L206.216 506.5H209.786L195.926 531H192.356ZM208.771 531.175C207.067 531.175 205.702 530.603 204.676 529.46C203.672 528.293 203.171 526.753 203.171 524.84C203.171 522.973 203.684 521.457 204.711 520.29C205.737 519.123 207.091 518.54 208.771 518.54C210.427 518.54 211.769 519.123 212.796 520.29C213.822 521.457 214.336 522.973 214.336 524.84C214.336 526.753 213.822 528.293 212.796 529.46C211.792 530.603 210.451 531.175 208.771 531.175ZM208.771 528.62C209.611 528.62 210.264 528.293 210.731 527.64C211.221 526.963 211.466 526.03 211.466 524.84C211.466 523.697 211.221 522.787 210.731 522.11C210.241 521.433 209.587 521.095 208.771 521.095C207.931 521.095 207.266 521.433 206.776 522.11C206.309 522.787 206.064 523.697 206.041 524.84C206.064 526.03 206.309 526.963 206.776 527.64C207.242 528.293 207.907 528.62 208.771 528.62Z" fill="white"/>
<path d="M681.224 531.385C679.428 531.385 677.748 531.058 676.184 530.405C674.644 529.752 673.291 528.853 672.124 527.71C670.958 526.543 670.048 525.202 669.394 523.685C668.741 522.145 668.414 520.5 668.414 518.75C668.414 517 668.729 515.367 669.359 513.85C670.013 512.31 670.923 510.968 672.089 509.825C673.256 508.658 674.609 507.748 676.149 507.095C677.689 506.442 679.358 506.115 681.154 506.115C683.091 506.115 684.923 506.488 686.649 507.235C688.376 507.982 689.834 509.02 691.024 510.35L688.504 512.8C687.618 511.75 686.521 510.945 685.214 510.385C683.931 509.802 682.578 509.51 681.154 509.51C679.871 509.51 678.681 509.743 677.584 510.21C676.511 510.677 675.566 511.33 674.749 512.17C673.933 512.987 673.291 513.955 672.824 515.075C672.381 516.195 672.159 517.42 672.159 518.75C672.159 520.057 672.381 521.282 672.824 522.425C673.291 523.545 673.933 524.525 674.749 525.365C675.589 526.205 676.558 526.858 677.654 527.325C678.751 527.792 679.941 528.025 681.224 528.025C682.671 528.025 683.978 527.722 685.144 527.115C686.334 526.508 687.303 525.68 688.049 524.63C688.796 523.557 689.251 522.355 689.414 521.025H681.259V517.805H693.264V519.065C693.264 520.815 692.961 522.437 692.354 523.93C691.748 525.423 690.896 526.73 689.799 527.85C688.726 528.97 687.454 529.845 685.984 530.475C684.514 531.082 682.928 531.385 681.224 531.385ZM705.166 531.35C703.439 531.35 701.864 530.942 700.441 530.125C699.041 529.308 697.933 528.2 697.116 526.8C696.299 525.4 695.891 523.837 695.891 522.11C695.891 520.383 696.299 518.82 697.116 517.42C697.933 516.02 699.041 514.912 700.441 514.095C701.864 513.255 703.439 512.835 705.166 512.835C706.916 512.835 708.491 513.255 709.891 514.095C711.291 514.912 712.399 516.02 713.216 517.42C714.033 518.82 714.441 520.383 714.441 522.11C714.441 523.837 714.033 525.4 713.216 526.8C712.399 528.2 711.291 529.308 709.891 530.125C708.491 530.942 706.916 531.35 705.166 531.35ZM705.166 528.27C706.263 528.27 707.254 528.002 708.141 527.465C709.028 526.905 709.728 526.158 710.241 525.225C710.754 524.292 711.011 523.242 711.011 522.075C711.011 520.932 710.743 519.905 710.206 518.995C709.693 518.062 708.993 517.315 708.106 516.755C707.243 516.195 706.263 515.915 705.166 515.915C704.069 515.915 703.078 516.195 702.191 516.755C701.328 517.315 700.628 518.062 700.091 518.995C699.578 519.905 699.321 520.932 699.321 522.075C699.321 523.242 699.578 524.292 700.091 525.225C700.604 526.158 701.304 526.905 702.191 527.465C703.078 528.002 704.069 528.27 705.166 528.27ZM726.221 531.35C724.494 531.35 722.919 530.942 721.496 530.125C720.096 529.308 718.987 528.2 718.171 526.8C717.354 525.4 716.946 523.837 716.946 522.11C716.946 520.383 717.354 518.82 718.171 517.42C718.987 516.02 720.096 514.912 721.496 514.095C722.919 513.255 724.494 512.835 726.221 512.835C727.971 512.835 729.546 513.255 730.946 514.095C732.346 514.912 733.454 516.02 734.271 517.42C735.087 518.82 735.496 520.383 735.496 522.11C735.496 523.837 735.087 525.4 734.271 526.8C733.454 528.2 732.346 529.308 730.946 530.125C729.546 530.942 727.971 531.35 726.221 531.35ZM726.221 528.27C727.317 528.27 728.309 528.002 729.196 527.465C730.082 526.905 730.782 526.158 731.296 525.225C731.809 524.292 732.066 523.242 732.066 522.075C732.066 520.932 731.797 519.905 731.261 518.995C730.747 518.062 730.047 517.315 729.161 516.755C728.297 516.195 727.317 515.915 726.221 515.915C725.124 515.915 724.132 516.195 723.246 516.755C722.382 517.315 721.682 518.062 721.146 518.995C720.632 519.905 720.376 520.932 720.376 522.075C720.376 523.242 720.632 524.292 721.146 525.225C721.659 526.158 722.359 526.905 723.246 527.465C724.132 528.002 725.124 528.27 726.221 528.27ZM746.995 531.28C745.339 531.28 743.822 530.872 742.445 530.055C741.069 529.238 739.984 528.142 739.19 526.765C738.397 525.365 738 523.802 738 522.075C738 520.348 738.397 518.797 739.19 517.42C740.007 516.043 741.104 514.947 742.48 514.13C743.857 513.313 745.385 512.905 747.065 512.905C748.045 512.905 748.99 513.057 749.9 513.36C750.81 513.663 751.65 514.107 752.42 514.69V506.5L755.92 505.835V531H752.455V529.285C750.939 530.615 749.119 531.28 746.995 531.28ZM747.45 528.235C748.477 528.235 749.41 528.048 750.25 527.675C751.114 527.302 751.837 526.765 752.42 526.065V518.05C751.837 517.397 751.114 516.883 750.25 516.51C749.41 516.113 748.477 515.915 747.45 515.915C746.33 515.915 745.315 516.183 744.405 516.72C743.495 517.257 742.772 517.992 742.235 518.925C741.699 519.835 741.43 520.873 741.43 522.04C741.43 523.207 741.699 524.257 742.235 525.19C742.772 526.123 743.495 526.87 744.405 527.43C745.315 527.967 746.33 528.235 747.45 528.235Z" fill="#2B2B2B"/>
<rect x="93" y="602" width="715" height="108" rx="24" fill="#EDEDED"/>
<g filter="url(#filter4_d_13_322)">
<rect x="93" y="602" width="270" height="108" rx="24" fill="url(#paint3_linear_13_322)"/>
</g>
<path d="M154.715 670V666.71L164.935 656.35C165.425 655.837 165.81 655.358 166.09 654.915C166.393 654.472 166.603 654.04 166.72 653.62C166.86 653.177 166.93 652.733 166.93 652.29C166.93 651.38 166.545 650.622 165.775 650.015C165.028 649.408 164.072 649.105 162.905 649.105C161.785 649.105 160.747 649.338 159.79 649.805C158.833 650.248 157.783 651.018 156.64 652.115L154.05 648.965C155.427 647.682 156.862 646.725 158.355 646.095C159.848 645.442 161.412 645.115 163.045 645.115C164.702 645.115 166.16 645.407 167.42 645.99C168.68 646.573 169.66 647.378 170.36 648.405C171.06 649.432 171.41 650.633 171.41 652.01C171.41 652.803 171.293 653.55 171.06 654.25C170.85 654.95 170.5 655.662 170.01 656.385C169.52 657.085 168.867 657.843 168.05 658.66L160.63 666.115L171.795 666.08V670H154.715ZM174.778 670V666.71L184.998 656.35C185.488 655.837 185.873 655.358 186.153 654.915C186.457 654.472 186.667 654.04 186.783 653.62C186.923 653.177 186.993 652.733 186.993 652.29C186.993 651.38 186.608 650.622 185.838 650.015C185.092 649.408 184.135 649.105 182.968 649.105C181.848 649.105 180.81 649.338 179.853 649.805C178.897 650.248 177.847 651.018 176.703 652.115L174.113 648.965C175.49 647.682 176.925 646.725 178.418 646.095C179.912 645.442 181.475 645.115 183.108 645.115C184.765 645.115 186.223 645.407 187.483 645.99C188.743 646.573 189.723 647.378 190.423 648.405C191.123 649.432 191.473 650.633 191.473 652.01C191.473 652.803 191.357 653.55 191.123 654.25C190.913 654.95 190.563 655.662 190.073 656.385C189.583 657.085 188.93 657.843 188.113 658.66L180.693 666.115L191.858 666.08V670H174.778ZM199.497 657.925C197.794 657.925 196.429 657.353 195.402 656.21C194.399 655.043 193.897 653.503 193.897 651.59C193.897 649.723 194.41 648.207 195.437 647.04C196.464 645.873 197.817 645.29 199.497 645.29C201.154 645.29 202.495 645.873 203.522 647.04C204.549 648.207 205.062 649.723 205.062 651.59C205.062 653.503 204.549 655.043 203.522 656.21C202.519 657.353 201.177 657.925 199.497 657.925ZM199.497 655.37C200.337 655.37 200.99 655.043 201.457 654.39C201.947 653.713 202.192 652.78 202.192 651.59C202.192 650.447 201.947 649.537 201.457 648.86C200.967 648.183 200.314 647.845 199.497 647.845C198.657 647.845 197.992 648.183 197.502 648.86C197.035 649.537 196.79 650.447 196.767 651.59C196.79 652.78 197.035 653.713 197.502 654.39C197.969 655.043 198.634 655.37 199.497 655.37ZM198.132 670L211.992 645.5H215.562L201.702 670H198.132ZM214.547 670.175C212.844 670.175 211.479 669.603 210.452 668.46C209.449 667.293 208.947 665.753 208.947 663.84C208.947 661.973 209.46 660.457 210.487 659.29C211.514 658.123 212.867 657.54 214.547 657.54C216.204 657.54 217.545 658.123 218.572 659.29C219.599 660.457 220.112 661.973 220.112 663.84C220.112 665.753 219.599 667.293 218.572 668.46C217.569 669.603 216.227 670.175 214.547 670.175ZM214.547 667.62C215.387 667.62 216.04 667.293 216.507 666.64C216.997 665.963 217.242 665.03 217.242 663.84C217.242 662.697 216.997 661.787 216.507 661.11C216.017 660.433 215.364 660.095 214.547 660.095C213.707 660.095 213.042 660.433 212.552 661.11C212.085 661.787 211.84 662.697 211.817 663.84C211.84 665.03 212.085 665.963 212.552 666.64C213.019 667.293 213.684 667.62 214.547 667.62Z" fill="white"/>
<path d="M625.828 669L635.943 644.5H640.283L650.293 669H646.303L643.468 661.825H632.513L629.643 669H625.828ZM633.703 658.78H642.278L638.008 648L633.703 658.78ZM655.302 669L647.602 651.185H651.452L657.017 664.52L662.582 651.185H666.292L658.662 669H655.302ZM676.491 669.315C674.741 669.315 673.154 668.907 671.731 668.09C670.331 667.273 669.211 666.165 668.371 664.765C667.554 663.365 667.146 661.802 667.146 660.075C667.146 658.372 667.542 656.832 668.336 655.455C669.129 654.055 670.202 652.947 671.556 652.13C672.909 651.29 674.414 650.87 676.071 650.87C677.727 650.87 679.197 651.29 680.481 652.13C681.764 652.947 682.779 654.067 683.526 655.49C684.296 656.89 684.681 658.477 684.681 660.25V661.23H670.646C670.832 662.21 671.194 663.085 671.731 663.855C672.291 664.625 672.991 665.232 673.831 665.675C674.694 666.118 675.627 666.34 676.631 666.34C677.494 666.34 678.322 666.212 679.116 665.955C679.932 665.675 680.609 665.278 681.146 664.765L683.386 666.97C682.336 667.763 681.251 668.358 680.131 668.755C679.034 669.128 677.821 669.315 676.491 669.315ZM670.681 658.605H681.216C681.076 657.672 680.749 656.855 680.236 656.155C679.746 655.432 679.127 654.872 678.381 654.475C677.657 654.055 676.864 653.845 676.001 653.845C675.114 653.845 674.297 654.043 673.551 654.44C672.804 654.837 672.174 655.397 671.661 656.12C671.171 656.82 670.844 657.648 670.681 658.605ZM688.014 669V651.185H691.514V653.46C692.074 652.62 692.763 651.967 693.579 651.5C694.419 651.01 695.364 650.765 696.414 650.765C697.138 650.788 697.733 650.893 698.199 651.08V654.23C697.873 654.09 697.534 653.997 697.184 653.95C696.834 653.88 696.484 653.845 696.134 653.845C695.108 653.845 694.198 654.125 693.404 654.685C692.611 655.222 691.981 656.015 691.514 657.065V669H688.014ZM705.92 669.315C704.636 669.315 703.505 669.093 702.525 668.65C701.545 668.183 700.775 667.542 700.215 666.725C699.655 665.908 699.375 664.963 699.375 663.89C699.375 662.21 700.016 660.892 701.3 659.935C702.583 658.955 704.345 658.465 706.585 658.465C708.335 658.465 709.956 658.803 711.45 659.48V657.59C711.45 656.307 711.076 655.35 710.33 654.72C709.606 654.09 708.533 653.775 707.11 653.775C706.293 653.775 705.441 653.903 704.555 654.16C703.668 654.393 702.676 654.767 701.58 655.28L700.285 652.655C701.638 652.025 702.898 651.57 704.065 651.29C705.231 650.987 706.41 650.835 707.6 650.835C709.91 650.835 711.695 651.383 712.955 652.48C714.238 653.577 714.88 655.14 714.88 657.17V669H711.45V667.46C710.656 668.09 709.805 668.557 708.895 668.86C707.985 669.163 706.993 669.315 705.92 669.315ZM702.735 663.82C702.735 664.683 703.096 665.383 703.82 665.92C704.566 666.433 705.535 666.69 706.725 666.69C707.658 666.69 708.51 666.562 709.28 666.305C710.073 666.025 710.796 665.593 711.45 665.01V662C710.773 661.603 710.061 661.323 709.315 661.16C708.591 660.973 707.775 660.88 706.865 660.88C705.581 660.88 704.566 661.148 703.82 661.685C703.096 662.198 702.735 662.91 702.735 663.82ZM727.733 676.49C726.426 676.49 725.154 676.338 723.918 676.035C722.681 675.732 721.561 675.3 720.558 674.74L721.888 672.01C722.938 672.547 723.918 672.932 724.828 673.165C725.761 673.422 726.694 673.55 727.628 673.55C729.191 673.55 730.369 673.188 731.163 672.465C731.979 671.742 732.388 670.68 732.388 669.28V667.25C730.824 668.487 729.039 669.105 727.033 669.105C725.399 669.105 723.894 668.708 722.518 667.915C721.164 667.098 720.091 666.002 719.298 664.625C718.504 663.225 718.108 661.685 718.108 660.005C718.108 658.302 718.504 656.762 719.298 655.385C720.114 653.985 721.199 652.888 722.553 652.095C723.929 651.278 725.469 650.87 727.173 650.87C728.129 650.87 729.051 651.033 729.938 651.36C730.848 651.663 731.676 652.107 732.423 652.69V651.185H735.888V669.28C735.888 671.59 735.176 673.363 733.753 674.6C732.353 675.86 730.346 676.49 727.733 676.49ZM727.488 666.095C728.514 666.095 729.448 665.92 730.288 665.57C731.128 665.197 731.828 664.672 732.388 663.995V656.015C731.828 655.362 731.116 654.848 730.253 654.475C729.413 654.102 728.491 653.915 727.488 653.915C726.368 653.915 725.353 654.183 724.443 654.72C723.556 655.257 722.844 655.992 722.308 656.925C721.794 657.835 721.538 658.862 721.538 660.005C721.538 661.148 721.794 662.187 722.308 663.12C722.844 664.03 723.556 664.753 724.443 665.29C725.353 665.827 726.368 666.095 727.488 666.095ZM748.542 669.315C746.792 669.315 745.205 668.907 743.782 668.09C742.382 667.273 741.262 666.165 740.422 664.765C739.605 663.365 739.197 661.802 739.197 660.075C739.197 658.372 739.593 656.832 740.387 655.455C741.18 654.055 742.253 652.947 743.607 652.13C744.96 651.29 746.465 650.87 748.122 650.87C749.778 650.87 751.248 651.29 752.532 652.13C753.815 652.947 754.83 654.067 755.577 655.49C756.347 656.89 756.732 658.477 756.732 660.25V661.23H742.697C742.883 662.21 743.245 663.085 743.782 663.855C744.342 664.625 745.042 665.232 745.882 665.675C746.745 666.118 747.678 666.34 748.682 666.34C749.545 666.34 750.373 666.212 751.167 665.955C751.983 665.675 752.66 665.278 753.197 664.765L755.437 666.97C754.387 667.763 753.302 668.358 752.182 668.755C751.085 669.128 749.872 669.315 748.542 669.315ZM742.732 658.605H753.267C753.127 657.672 752.8 656.855 752.287 656.155C751.797 655.432 751.178 654.872 750.432 654.475C749.708 654.055 748.915 653.845 748.052 653.845C747.165 653.845 746.348 654.043 745.602 654.44C744.855 654.837 744.225 655.397 743.712 656.12C743.222 656.82 742.895 657.648 742.732 658.605Z" fill="#2B2B2B"/>
<path fill-rule="evenodd" clip-rule="evenodd" d="M369.43 81.6686H414.569C431.007 81.6686 440.287 90.9921 440.335 107.43V152.574C440.335 169.007 431.007 178.335 414.569 178.335H369.43C352.992 178.335 343.669 169.007 343.669 152.574V107.43C343.669 90.9921 352.992 81.6686 369.43 81.6686ZM392.239 158.325C394.322 158.325 396.057 156.779 396.25 154.7V105.449C396.444 103.95 395.724 102.447 394.419 101.63C393.06 100.809 391.417 100.809 390.117 101.63C388.807 102.447 388.087 103.95 388.227 105.449V154.7C388.474 156.779 390.209 158.325 392.239 158.325ZM414.477 158.325C416.507 158.325 418.242 156.779 418.489 154.7V138.847C418.629 137.295 417.909 135.85 416.599 135.029C415.299 134.207 413.655 134.207 412.302 135.029C410.992 135.85 410.272 137.295 410.465 138.847V154.7C410.659 156.779 412.394 158.325 414.477 158.325ZM373.727 154.7C373.534 156.779 371.799 158.325 369.715 158.325C367.637 158.325 365.897 156.779 365.709 154.7V121.302C365.564 119.799 366.284 118.305 367.594 117.484C368.894 116.662 370.542 116.662 371.847 117.484C373.147 118.305 373.877 119.799 373.727 121.302V154.7Z" fill="white"/>
<path d="M483.276 125V88.6H501.528C503.92 88.6 506.017 89.0853 507.82 90.056C509.657 91.0267 511.096 92.3787 512.136 94.112C513.211 95.8107 513.748 97.7867 513.748 100.04C513.748 102.189 513.211 104.113 512.136 105.812C511.096 107.511 509.657 108.845 507.82 109.816C505.983 110.787 503.885 111.272 501.528 111.272H490.816V125H483.276ZM490.816 105.032H500.696C502.325 105.032 503.625 104.581 504.596 103.68C505.601 102.779 506.104 101.583 506.104 100.092C506.104 98.5667 505.601 97.3533 504.596 96.452C503.625 95.5507 502.325 95.1 500.696 95.1H490.816V105.032ZM536.507 125.572C533.803 125.572 531.289 125.104 528.967 124.168C526.644 123.197 524.599 121.863 522.831 120.164C521.097 118.431 519.728 116.437 518.723 114.184C517.752 111.896 517.267 109.435 517.267 106.8C517.267 104.165 517.752 101.721 518.723 99.468C519.728 97.18 521.097 95.1867 522.831 93.488C524.599 91.7547 526.644 90.42 528.967 89.484C531.289 88.5133 533.803 88.028 536.507 88.028C539.211 88.028 541.724 88.5133 544.047 89.484C546.404 90.42 548.449 91.7547 550.183 93.488C551.951 95.1867 553.32 97.18 554.291 99.468C555.261 101.721 555.747 104.165 555.747 106.8C555.747 109.435 555.261 111.896 554.291 114.184C553.32 116.437 551.951 118.431 550.183 120.164C548.449 121.863 546.404 123.197 544.047 124.168C541.724 125.104 539.211 125.572 536.507 125.572ZM536.507 118.656C538.171 118.656 539.696 118.361 541.083 117.772C542.469 117.148 543.683 116.316 544.723 115.276C545.763 114.201 546.577 112.936 547.167 111.48C547.756 110.024 548.051 108.464 548.051 106.8C548.051 105.101 547.756 103.541 547.167 102.12C546.577 100.664 545.763 99.416 544.723 98.376C543.683 97.3013 542.469 96.4693 541.083 95.88C539.696 95.256 538.171 94.944 536.507 94.944C534.877 94.944 533.369 95.256 531.983 95.88C530.596 96.4693 529.383 97.3013 528.343 98.376C527.303 99.416 526.488 100.664 525.899 102.12C525.309 103.541 525.015 105.084 525.015 106.748C525.015 108.447 525.309 110.024 525.899 111.48C526.488 112.936 527.303 114.201 528.343 115.276C529.383 116.316 530.596 117.148 531.983 117.772C533.369 118.361 534.877 118.656 536.507 118.656ZM560.971 125V88.6H568.511V118.344H588.427V125H560.971ZM593.624 125V88.6H601.164V118.344H621.08V125H593.624ZM639.276 125.52C636.329 125.52 633.452 124.983 630.644 123.908C627.836 122.799 625.34 121.239 623.156 119.228L627.472 113.82C629.587 115.657 631.615 117.009 633.556 117.876C635.532 118.708 637.612 119.124 639.796 119.124C641.321 119.124 642.639 118.951 643.748 118.604C644.857 118.223 645.707 117.685 646.296 116.992C646.92 116.299 647.232 115.484 647.232 114.548C647.232 113.3 646.781 112.347 645.88 111.688C644.979 110.995 643.436 110.457 641.252 110.076L634.024 108.828C630.939 108.308 628.581 107.216 626.952 105.552C625.357 103.888 624.56 101.739 624.56 99.104C624.56 96.8507 625.132 94.892 626.276 93.228C627.455 91.564 629.101 90.2987 631.216 89.432C633.365 88.5307 635.913 88.08 638.86 88.08C641.529 88.08 644.181 88.5307 646.816 89.432C649.485 90.3333 651.843 91.5813 653.888 93.176L649.832 98.792C646.019 95.88 642.188 94.424 638.34 94.424C636.988 94.424 635.809 94.5973 634.804 94.944C633.799 95.2907 633.019 95.776 632.464 96.4C631.944 96.9893 631.684 97.7 631.684 98.532C631.684 99.6413 632.083 100.508 632.88 101.132C633.677 101.721 635.012 102.172 636.884 102.484L643.748 103.628C647.388 104.217 650.109 105.379 651.912 107.112C653.715 108.811 654.616 111.064 654.616 113.872C654.616 116.229 653.992 118.292 652.744 120.06C651.496 121.793 649.711 123.145 647.388 124.116C645.1 125.052 642.396 125.52 639.276 125.52Z" fill="white"/>
<path d="M494.21 178.33C492.67 178.33 491.23 178.05 489.89 177.49C488.57 176.93 487.41 176.16 486.41 175.18C485.41 174.18 484.63 173.03 484.07 171.73C483.51 170.41 483.23 169 483.23 167.5C483.23 166 483.5 164.6 484.04 163.3C484.6 161.98 485.38 160.83 486.38 159.85C487.38 158.85 488.54 158.07 489.86 157.51C491.18 156.95 492.61 156.67 494.15 156.67C495.81 156.67 497.38 156.99 498.86 157.63C500.34 158.27 501.59 159.16 502.61 160.3L500.45 162.4C499.69 161.5 498.75 160.81 497.63 160.33C496.53 159.83 495.37 159.58 494.15 159.58C493.05 159.58 492.03 159.78 491.09 160.18C490.17 160.58 489.36 161.14 488.66 161.86C487.96 162.56 487.41 163.39 487.01 164.35C486.63 165.31 486.44 166.36 486.44 167.5C486.44 168.62 486.63 169.67 487.01 170.65C487.41 171.61 487.96 172.45 488.66 173.17C489.38 173.89 490.21 174.45 491.15 174.85C492.09 175.25 493.11 175.45 494.21 175.45C495.45 175.45 496.57 175.19 497.57 174.67C498.59 174.15 499.42 173.44 500.06 172.54C500.7 171.62 501.09 170.59 501.23 169.45H494.24V166.69H504.53V167.77C504.53 169.27 504.27 170.66 503.75 171.94C503.23 173.22 502.5 174.34 501.56 175.3C500.64 176.26 499.55 177.01 498.29 177.55C497.03 178.07 495.67 178.33 494.21 178.33ZM507.831 178V157H523.311V159.76H510.981V166.06H519.081V168.73H510.981V175.24H523.431V178H507.831ZM532.429 178V159.79H525.049V157H542.959V159.79H535.579V178H532.429ZM551.864 178V157H567.404V159.76H555.014V166.21H563.174V168.88H555.014V178H551.864ZM570.468 178V157H585.948V159.76H573.618V166.06H581.718V168.73H573.618V175.24H586.068V178H570.468ZM589.306 178V157H604.786V159.76H592.456V166.06H600.556V168.73H592.456V175.24H604.906V178H589.306ZM611.294 175.18H615.614C616.714 175.18 617.734 174.99 618.674 174.61C619.614 174.21 620.434 173.67 621.134 172.99C621.854 172.29 622.404 171.48 622.784 170.56C623.184 169.62 623.384 168.6 623.384 167.5C623.384 166.42 623.184 165.41 622.784 164.47C622.404 163.53 621.854 162.72 621.134 162.04C620.434 161.34 619.614 160.8 618.674 160.42C617.734 160.02 616.714 159.82 615.614 159.82H611.294V175.18ZM608.144 178V157H615.554C617.134 157 618.594 157.27 619.934 157.81C621.274 158.33 622.444 159.06 623.444 160C624.444 160.94 625.224 162.05 625.784 163.33C626.344 164.61 626.624 166 626.624 167.5C626.624 169.02 626.344 170.42 625.784 171.7C625.244 172.96 624.474 174.06 623.474 175C622.474 175.94 621.294 176.68 619.934 177.22C618.594 177.74 617.134 178 615.554 178H608.144ZM629.941 178V157H639.031C640.411 157 641.611 157.23 642.631 157.69C643.651 158.15 644.441 158.8 645.001 159.64C645.561 160.46 645.841 161.43 645.841 162.55C645.841 163.57 645.581 164.47 645.061 165.25C644.541 166.03 643.811 166.65 642.871 167.11C644.051 167.53 644.971 168.17 645.631 169.03C646.311 169.87 646.651 170.86 646.651 172C646.651 173.22 646.351 174.28 645.751 175.18C645.151 176.08 644.311 176.78 643.231 177.28C642.151 177.76 640.881 178 639.421 178H629.941ZM633.091 165.91H638.851C640.031 165.91 640.971 165.63 641.671 165.07C642.371 164.51 642.721 163.75 642.721 162.79C642.721 161.83 642.371 161.07 641.671 160.51C640.971 159.95 640.031 159.67 638.851 159.67H633.091V165.91ZM633.091 175.33H639.181C640.501 175.33 641.541 175.02 642.301 174.4C643.081 173.78 643.471 172.94 643.471 171.88C643.471 170.84 643.081 170.01 642.301 169.39C641.541 168.75 640.501 168.43 639.181 168.43H633.091V175.33ZM647.645 178L656.315 157H660.035L668.615 178H665.195L662.765 171.85H653.375L650.915 178H647.645ZM654.395 169.24H661.745L658.085 160L654.395 169.24ZM679.806 178.33C678.246 178.33 676.796 178.06 675.456 177.52C674.136 176.96 672.966 176.19 671.946 175.21C670.946 174.21 670.166 173.06 669.606 171.76C669.066 170.44 668.796 169.02 668.796 167.5C668.796 165.98 669.066 164.57 669.606 163.27C670.166 161.95 670.946 160.8 671.946 159.82C672.966 158.82 674.146 158.05 675.486 157.51C676.826 156.95 678.266 156.67 679.806 156.67C680.906 156.67 681.976 156.82 683.016 157.12C684.076 157.4 685.046 157.81 685.926 158.35C686.826 158.89 687.606 159.54 688.266 160.3L686.166 162.46C685.386 161.52 684.436 160.81 683.316 160.33C682.196 159.83 681.026 159.58 679.806 159.58C678.686 159.58 677.646 159.78 676.686 160.18C675.746 160.58 674.926 161.14 674.226 161.86C673.526 162.56 672.976 163.39 672.576 164.35C672.196 165.31 672.006 166.36 672.006 167.5C672.006 168.62 672.196 169.66 672.576 170.62C672.976 171.58 673.536 172.42 674.256 173.14C674.976 173.86 675.816 174.42 676.776 174.82C677.736 175.22 678.776 175.42 679.896 175.42C681.116 175.42 682.266 175.18 683.346 174.7C684.446 174.2 685.376 173.5 686.136 172.6L688.206 174.7C687.506 175.44 686.706 176.09 685.806 176.65C684.926 177.19 683.966 177.61 682.926 177.91C681.906 178.19 680.866 178.33 679.806 178.33ZM691.288 178V157H694.438V166.72L704.608 157H708.598L697.678 167.17L708.928 178H704.608L694.438 168.04V178H691.288Z" fill="white"/>
</g>
<defs>
<filter id="filter0_d_13_322" x="111" y="162" width="858" height="1073" filterUnits="userSpaceOnUse" color-interpolation-filters="sRGB">
<feFlood flood-opacity="0" result="BackgroundImageFix"/>
<feColorMatrix in="SourceAlpha" type="matrix" values="0 0 0 0 0 0 0 0 0 0 0 0 0 0 0 0 0 0 127 0" result="hardAlpha"/>
<feOffset dy="4"/>
<feGaussianBlur stdDeviation="52"/>
<feComposite in2="hardAlpha" operator="out"/>
<feColorMatrix type="matrix" values="0 0 0 0 0 0 0 0 0 0 0 0 0 0 0 0 0 0 0.06 0"/>
<feBlend mode="normal" in2="BackgroundImageFix" result="effect1_dropShadow_13_322"/>
<feBlend mode="normal" in="SourceGraphic" in2="effect1_dropShadow_13_322" result="shape"/>
</filter>
<filter id="filter1_d_13_322" x="49" y="699" width="500" height="196" filterUnits="userSpaceOnUse" color-interpolation-filters="sRGB">
<feFlood flood-opacity="0" result="BackgroundImageFix"/>
<feColorMatrix in="SourceAlpha" type="matrix" values="0 0 0 0 0 0 0 0 0 0 0 0 0 0 0 0 0 0 127 0" result="hardAlpha"/>
<feOffset dy="4"/>
<feGaussianBlur stdDeviation="22"/>
<feComposite in2="hardAlpha" operator="out"/>
<feColorMatrix type="matrix" values="0 0 0 0 0.831373 0 0 0 0 0.0941176 0 0 0 0 0.184314 0 0 0 0.42 0"/>
<feBlend mode="normal" in2="BackgroundImageFix" result="effect1_dropShadow_13_322"/>
<feBlend mode="normal" in="SourceGraphic" in2="effect1_dropShadow_13_322" result="shape"/>
</filter>
<filter id="filter2_d_13_322" x="49" y="838" width="262.892" height="196" filterUnits="userSpaceOnUse" color-interpolation-filters="sRGB">
<feFlood flood-opacity="0" result="BackgroundImageFix"/>
<feColorMatrix in="SourceAlpha" type="matrix" values="0 0 0 0 0 0 0 0 0 0 0 0 0 0 0 0 0 0 127 0" result="hardAlpha"/>
<feOffset dy="4"/>
<feGaussianBlur stdDeviation="22"/>
<feComposite in2="hardAlpha" operator="out"/>
<feColorMatrix type="matrix" values="0 0 0 0 0.831373 0 0 0 0 0.0941176 0 0 0 0 0.184314 0 0 0 0.42 0"/>
<feBlend mode="normal" in2="BackgroundImageFix" result="effect1_dropShadow_13_322"/>
<feBlend mode="normal" in="SourceGraphic" in2="effect1_dropShadow_13_322" result="shape"/>
</filter>
<filter id="filter3_d_13_322" x="49" y="423" width="327.191" height="196" filterUnits="userSpaceOnUse" color-interpolation-filters="sRGB">
<feFlood flood-opacity="0" result="BackgroundImageFix"/>
<feColorMatrix in="SourceAlpha" type="matrix" values="0 0 0 0 0 0 0 0 0 0 0 0 0 0 0 0 0 0 127 0" result="hardAlpha"/>
<feOffset dy="4"/>
<feGaussianBlur stdDeviation="22"/>
<feComposite in2="hardAlpha" operator="out"/>
<feColorMatrix type="matrix" values="0 0 0 0 0.831373 0 0 0 0 0.0941176 0 0 0 0 0.184314 0 0 0 0.42 0"/>
<feBlend mode="normal" in2="BackgroundImageFix" result="effect1_dropShadow_13_322"/>
<feBlend mode="normal" in="SourceGraphic" in2="effect1_dropShadow_13_322" result="shape"/>
</filter>
<filter id="filter4_d_13_322" x="49" y="562" width="358" height="196" filterUnits="userSpaceOnUse" color-interpolation-filters="sRGB">
<feFlood flood-opacity="0" result="BackgroundImageFix"/>
<feColorMatrix in="SourceAlpha" type="matrix" values="0 0 0 0 0 0 0 0 0 0 0 0 0 0 0 0 0 0 127 0" result="hardAlpha"/>
<feOffset dy="4"/>
<feGaussianBlur stdDeviation="22"/>
<feComposite in2="hardAlpha" operator="out"/>
<feColorMatrix type="matrix" values="0 0 0 0 0.831373 0 0 0 0 0.0941176 0 0 0 0 0.184314 0 0 0 0.42 0"/>
<feBlend mode="normal" in2="BackgroundImageFix" result="effect1_dropShadow_13_322"/>
<feBlend mode="normal" in="SourceGraphic" in2="effect1_dropShadow_13_322" result="shape"/>
</filter>
<linearGradient id="paint0_linear_13_322" x1="-113" y1="793" x2="-60.0192" y2="995.112" gradientUnits="userSpaceOnUse">
<stop stop-color="#ED3643"/>
<stop offset="1" stop-color="#CA0C26"/>
</linearGradient>
<linearGradient id="paint1_linear_13_322" x1="5.55396" y1="932" x2="102.116" y2="1088.37" gradientUnits="userSpaceOnUse">
<stop stop-color="#ED3643"/>
<stop offset="1" stop-color="#CA0C26"/>
</linearGradient>
<linearGradient id="paint2_linear_13_322" x1="-26.5953" y1="517" x2="54.4173" y2="696.421" gradientUnits="userSpaceOnUse">
<stop stop-color="#ED3643"/>
<stop offset="1" stop-color="#CA0C26"/>
</linearGradient>
<linearGradient id="paint3_linear_13_322" x1="-42" y1="656" x2="32.4828" y2="842.207" gradientUnits="userSpaceOnUse">
<stop stop-color="#ED3643"/>
<stop offset="1" stop-color="#CA0C26"/>
</linearGradient>
<clipPath id="clip0_13_322">
<rect width="1080" height="1080" fill="white"/>
</clipPath>
</defs>
</svg>
